<?xml version="1.0" standalone="no"?>
<!DOCTYPE svg PUBLIC "-//W3C//DTD SVG 20010904//EN"
 "http://www.w3.org/TR/2001/REC-SVG-20010904/DTD/svg10.dtd">
<svg version="1.0" xmlns="http://www.w3.org/2000/svg"
 width="1280.000000pt" height="1280.000000pt" viewBox="0 0 1280.000000 1280.000000"
 preserveAspectRatio="xMidYMid meet">
<metadata>
Created by potrace 1.15, written by Peter Selinger 2001-2017
</metadata>
<g transform="translate(0.000000,1280.000000) scale(0.100000,-0.100000)"
fill="#694A35" stroke="none">
<path d="M1565 11916 c-91 -18 -155 -40 -235 -82 -593 -311 -885 -1337 -664
-2334 60 -268 127 -458 254 -715 296 -602 758 -1057 1385 -1365 388 -191 843
-321 1295 -370 58 -6 114 -13 125 -15 11 -2 79 -73 151 -157 237 -277 389
-436 945 -989 l549 -546 0 -1366 0 -1366 -42 -5 c-24 -4 -115 -13 -203 -21
-1199 -114 -1715 -287 -2149 -721 -225 -226 -372 -464 -587 -951 l-18 -43
4028 0 4029 0 -74 161 c-200 434 -350 661 -578 876 -368 348 -829 524 -1641
627 -91 12 -694 76 -712 76 -2 0 -3 613 -3 1362 l0 1363 548 545 c530 528 717
724 966 1013 67 77 127 139 140 141 11 3 83 12 160 21 544 64 1072 239 1507
499 541 323 979 827 1219 1401 316 757 325 1654 25 2292 -165 349 -401 573
-690 655 -102 28 -293 31 -397 5 -230 -57 -457 -198 -678 -421 l-85 -86 -3735
0 -3735 0 -110 108 c-218 213 -415 335 -631 392 -102 27 -266 34 -359 16z
m315 -308 c147 -46 315 -155 470 -308 l96 -95 -9 -90 c-15 -139 -14 -887 1
-1035 78 -757 260 -1369 593 -1991 111 -208 290 -496 418 -671 23 -32 37 -58
32 -58 -6 0 -71 12 -143 26 -1083 209 -1848 787 -2232 1688 -218 509 -278
1137 -160 1665 77 342 239 636 432 781 151 113 322 143 502 88z m9353 7 c136
-39 284 -162 393 -325 125 -189 214 -438 259 -730 23 -144 31 -477 16 -637
-66 -702 -382 -1352 -874 -1794 -440 -397 -1000 -651 -1681 -764 -46 -8 -50
-17 50 122 227 317 459 740 609 1113 237 587 354 1172 371 1850 6 226 -7 617
-23 714 -6 39 -6 39 99 140 287 277 544 379 781 311z"/>
</g>
</svg>
